<svg xmlns="http://www.w3.org/2000/svg" viewBox="0 0 48 48" role="img" aria-labelledby="title">
  <title>GitHub icon</title>
  <circle cx="24" cy="24" r="22" fill="#00FF41" />
  <path d="M24 12c-6.6 0-12 5.2-12 11.7 0 5.2 3.4 9.5 8.1 11.1.6.1.8-.2.8-.6v-2.2c-3.3.7-4-1.4-4-1.4-.6-1.5-1.4-1.9-1.4-1.9-1.2-.8.1-.8.1-.8 1.3.1 2 .9 2 .9 1.2 2 3.1 1.4 3.9 1.1.1-.8.4-1.4.8-1.7-2.7-.3-5.6-1.3-5.6-5.9 0-1.3.5-2.3 1.2-3.2-.1-.3-.5-1.5.1-3.1 0 0 1-.3 3.3 1.2.9-.2 1.9-.3 2.8-.3s1.9.1 2.8.3c2.3-1.5 3.3-1.2 3.3-1.2.6 1.6.2 2.8.1 3.1.8.9 1.2 1.9 1.2 3.2 0 4.6-2.9 5.6-5.6 5.9.5.4.9 1.2.9 2.3v3.4c0 .4.2.7.8.6 4.7-1.6 8.1-5.9 8.1-11.1C36 17.2 30.6 12 24 12z" fill="#0D1117" />
</svg>
